
<svg version="1.1" xmlns="http://www.w3.org/2000/svg" xmlns:xlink="http://www.w3.org/1999/xlink" width="106.95409" height="86.29353" viewBox="0,0,106.95409,86.29353"><g transform="translate(-186.52731,-125.70625)"><g data-paper-data="{&quot;isPaintingLayer&quot;:true}" fill-rule="nonzero" stroke-linejoin="miter" stroke-miterlimit="10" stroke-dasharray="" stroke-dashoffset="0" style="mix-blend-mode: normal"><path d="M188.31912,210.99978l51.44272,-83.39514l51.91904,83.39514z" fill="#fff300" stroke="#000000" stroke-width="2" stroke-linecap="butt"/><g stroke-width="2"><path d="M234.14999,186.72839c0,-2.13342 1.72949,-3.86291 3.86291,-3.86291c2.13342,0 3.86291,1.72949 3.86291,3.86291c0,2.13342 -1.72949,3.86291 -3.86291,3.86291c-2.13342,0 -3.86291,-1.72949 -3.86291,-3.86291z" fill="#000000" stroke="none" stroke-linecap="butt"/><path d="M238.70949,188.81816l3.92624,12.15866l-7.85247,2.1531l-1.89979,5.57272" fill="none" stroke="#000000" stroke-linecap="round"/><path d="M229.97045,194.26423l3.16632,-1.39318l6.71259,0.25331l5.06611,2.65971l-10.76548,1.01322" fill="none" stroke="#000000" stroke-linecap="round"/><path d="M242.00247,200.59687l4.43284,2.4064l3.41963,6.07934" fill="none" stroke="#000000" stroke-linecap="round"/></g><path d="M227.25397,181.6601v-24.1077h24.1077v24.1077z" fill="#000000" stroke="none" stroke-width="none" stroke-linecap="butt"/><path d="M229.06205,186.18029l-18.08078,4.82154" fill="none" stroke="#000000" stroke-width="2" stroke-linecap="round"/><path d="M223.03512,183.16683l-11.14981,-3.01346" fill="none" stroke="#000000" stroke-width="2" stroke-linecap="round"/><path d="M220.9257,185.5776l-12.35519,0.60269" fill="none" stroke="#000000" stroke-width="2" stroke-linecap="round"/><path d="M251.96436,182.56414l14.76596,-5.42423" fill="none" stroke="#000000" stroke-width="2" stroke-linecap="round"/><path d="M253.47109,185.27625h14.76596" fill="none" stroke="#000000" stroke-width="2" stroke-linecap="round"/><path d="M251.36167,188.59106l15.06731,6.93097" fill="none" stroke="#000000" stroke-width="2" stroke-linecap="round"/><path d="M238.40378,161.77125l0.30134,15.97135" fill="none" stroke="#ffffff" stroke-width="2" stroke-linecap="round"/><path d="M232.07551,171.71567l6.29252,8.13635l6.96672,-8.73904" fill="none" stroke="#ffffff" stroke-width="2" stroke-linecap="round"/></g></g></svg>